<mxfile host="app.diagrams.net" modified="2023-05-14T08:24:12.171Z" agent="Mozilla/5.0 (Windows NT 10.0; Win64; x64) AppleWebKit/537.36 (KHTML, like Gecko) Chrome/113.0.0.0 Safari/537.36" etag="ay2GXLAhAmCHF6zqEafp" version="21.3.0" type="github">
  <diagram name="Page-1" id="5f0bae14-7c28-e335-631c-24af17079c00">
    <mxGraphModel dx="1553" dy="824" grid="1" gridSize="10" guides="1" tooltips="1" connect="1" arrows="1" fold="1" page="1" pageScale="1" pageWidth="1100" pageHeight="850" background="none" math="0" shadow="0">
      <root>
        <mxCell id="0" />
        <mxCell id="1" parent="0" />
        <mxCell id="tz9ENl9yOeId7DFRfG0S-1" value="" style="whiteSpace=wrap;html=1;aspect=fixed;" vertex="1" parent="1">
          <mxGeometry x="300" y="140" width="320" height="320" as="geometry" />
        </mxCell>
        <mxCell id="tz9ENl9yOeId7DFRfG0S-2" value="逻辑模块" style="text;strokeColor=none;align=center;fillColor=none;html=1;verticalAlign=middle;whiteSpace=wrap;rounded=0;" vertex="1" parent="1">
          <mxGeometry x="300" y="150" width="60" height="30" as="geometry" />
        </mxCell>
        <mxCell id="tz9ENl9yOeId7DFRfG0S-3" value="" style="whiteSpace=wrap;html=1;aspect=fixed;" vertex="1" parent="1">
          <mxGeometry x="760" y="150" width="220" height="220" as="geometry" />
        </mxCell>
        <mxCell id="tz9ENl9yOeId7DFRfG0S-4" value="车辆通信" style="text;strokeColor=none;align=center;fillColor=none;html=1;verticalAlign=middle;whiteSpace=wrap;rounded=0;" vertex="1" parent="1">
          <mxGeometry x="760" y="150" width="60" height="30" as="geometry" />
        </mxCell>
        <mxCell id="tz9ENl9yOeId7DFRfG0S-5" value="" style="whiteSpace=wrap;html=1;aspect=fixed;" vertex="1" parent="1">
          <mxGeometry x="760" y="410" width="220" height="220" as="geometry" />
        </mxCell>
        <mxCell id="tz9ENl9yOeId7DFRfG0S-6" value="设备模块" style="text;strokeColor=none;align=center;fillColor=none;html=1;verticalAlign=middle;whiteSpace=wrap;rounded=0;" vertex="1" parent="1">
          <mxGeometry x="760" y="410" width="60" height="30" as="geometry" />
        </mxCell>
        <mxCell id="tz9ENl9yOeId7DFRfG0S-7" value="" style="whiteSpace=wrap;html=1;aspect=fixed;" vertex="1" parent="1">
          <mxGeometry x="360" y="510" width="220" height="220" as="geometry" />
        </mxCell>
        <mxCell id="tz9ENl9yOeId7DFRfG0S-8" value="KPI" style="text;strokeColor=none;align=center;fillColor=none;html=1;verticalAlign=middle;whiteSpace=wrap;rounded=0;" vertex="1" parent="1">
          <mxGeometry x="360" y="510" width="60" height="30" as="geometry" />
        </mxCell>
        <mxCell id="tz9ENl9yOeId7DFRfG0S-9" value="" style="whiteSpace=wrap;html=1;" vertex="1" parent="1">
          <mxGeometry x="40" y="150" width="120" height="60" as="geometry" />
        </mxCell>
        <mxCell id="tz9ENl9yOeId7DFRfG0S-10" value="" style="whiteSpace=wrap;html=1;" vertex="1" parent="1">
          <mxGeometry x="220" y="20" width="770" height="80" as="geometry" />
        </mxCell>
        <mxCell id="tz9ENl9yOeId7DFRfG0S-11" value="WEB&amp;nbsp; UI" style="text;strokeColor=none;align=center;fillColor=none;html=1;verticalAlign=middle;whiteSpace=wrap;rounded=0;" vertex="1" parent="1">
          <mxGeometry x="220" y="20" width="60" height="30" as="geometry" />
        </mxCell>
      </root>
    </mxGraphModel>
  </diagram>
</mxfile>
